<svg width="165" height="169" viewBox="0 0 165 169" fill="none" xmlns="http://www.w3.org/2000/svg">
<path opacity="0.5" fill-rule="evenodd" clip-rule="evenodd" d="M158.16 159.702H164.75V161.383H158.16V168.107H156.513V161.383H141.685V168.107H140.038V161.383H125.21V168.107H123.563V161.383H108.735V168.107H107.088V161.383H92.26V168.107H90.6125V161.383H75.785V168.107H74.1375V161.383H59.31V168.107H57.6625V161.383H42.835V168.107H41.1875V161.383H26.36V168.107H24.7125V161.383H0V159.702H24.7125V144.572H0V142.891H24.7125V127.762H0V126.081H24.7125V110.951H0V109.27H24.7125V94.1402H0V92.4591H24.7125V77.3294H0V75.6484H24.7125V60.5187H0V58.8376H24.7125V43.7079H0V42.0269H24.7125V26.8972H0V25.2161H24.7125V0H26.36V25.2161H41.1875V0H42.835V25.2161H57.6625V0H59.31V25.2161H74.1375V0H75.785V25.2161H90.6125V0H92.26V25.2161H107.088V0H108.735V25.2161H123.563V0H125.21V25.2161H140.038V0H141.685V25.2161H156.513V0H158.16V25.2161H164.75V26.8972H158.16V42.0269H164.75V43.7079H158.16V58.8376H164.75V60.5187H158.16V75.6484H164.75V77.3294H158.16V92.4591H164.75V94.1402H158.16V109.27H164.75V110.951H158.16V126.081H164.75V127.762H158.16V142.891H164.75V144.572H158.16V159.702ZM156.513 159.702V144.572H141.685V159.702H156.513ZM140.038 159.702V144.572H125.21V159.702H140.038ZM123.563 159.702V144.572H108.735V159.702H123.563ZM107.088 159.702V144.572H92.26V159.702H107.088ZM90.6125 159.702V144.572H75.785V159.702H90.6125ZM74.1375 159.702V144.572H59.31V159.702H74.1375ZM57.6625 159.702V144.572H42.835V159.702H57.6625ZM41.1875 159.702V144.572H26.36V159.702H41.1875ZM26.36 142.891H41.1875V127.762H26.36V142.891ZM42.835 142.891H57.6625V127.762H42.835V142.891ZM59.31 142.891H74.1375V127.762H59.31V142.891ZM75.785 142.891H90.6125V127.762H75.785V142.891ZM92.26 142.891H107.088V127.762H92.26V142.891ZM108.735 142.891H123.563V127.762H108.735V142.891ZM125.21 142.891H140.038V127.762H125.21V142.891ZM141.685 142.891H156.513V127.762H141.685V142.891ZM156.513 126.081V110.951H141.685V126.081H156.513ZM140.038 126.081V110.951H125.21V126.081H140.038ZM123.563 126.081V110.951H108.735V126.081H123.563ZM107.088 126.081V110.951H92.26V126.081H107.088ZM90.6125 126.081V110.951H75.785V126.081H90.6125ZM74.1375 126.081V110.951H59.31V126.081H74.1375ZM57.6625 126.081V110.951H42.835V126.081H57.6625ZM41.1875 126.081V110.951H26.36V126.081H41.1875ZM26.36 109.27H41.1875V94.1402H26.36V109.27ZM42.835 109.27H57.6625V94.1402H42.835V109.27ZM59.31 109.27H74.1375V94.1402H59.31V109.27ZM75.785 109.27H90.6125V94.1402H75.785V109.27ZM92.26 109.27H107.088V94.1402H92.26V109.27ZM108.735 109.27H123.563V94.1402H108.735V109.27ZM125.21 109.27H140.038V94.1402H125.21V109.27ZM141.685 109.27H156.513V94.1402H141.685V109.27ZM156.513 92.4591V77.3294H141.685V92.4591H156.513ZM140.038 92.4591V77.3294H125.21V92.4591H140.038ZM123.563 92.4591V77.3294H108.735V92.4591H123.563ZM107.088 92.4591V77.3294H92.26V92.4591H107.088ZM90.6125 92.4591V77.3294H75.785V92.4591H90.6125ZM74.1375 92.4591V77.3294H59.31V92.4591H74.1375ZM57.6625 92.4591V77.3294H42.835V92.4591H57.6625ZM41.1875 92.4591V77.3294H26.36V92.4591H41.1875ZM26.36 75.6484H41.1875V60.5187H26.36V75.6484ZM42.835 75.6484H57.6625V60.5187H42.835V75.6484ZM59.31 75.6484H74.1375V60.5187H59.31V75.6484ZM75.785 75.6484H90.6125V60.5187H75.785V75.6484ZM92.26 75.6484H107.088V60.5187H92.26V75.6484ZM108.735 75.6484H123.563V60.5187H108.735V75.6484ZM125.21 75.6484H140.038V60.5187H125.21V75.6484ZM141.685 75.6484H156.513V60.5187H141.685V75.6484ZM156.513 58.8376V43.7079H141.685V58.8376H156.513ZM140.038 58.8376V43.7079H125.21V58.8376H140.038ZM123.563 58.8376V43.7079H108.735V58.8376H123.563ZM107.088 58.8376V43.7079H92.26V58.8376H107.088ZM90.6125 58.8376V43.7079H75.785V58.8376H90.6125ZM74.1375 58.8376V43.7079H59.31V58.8376H74.1375ZM57.6625 58.8376V43.7079H42.835V58.8376H57.6625ZM41.1875 58.8376V43.7079H26.36V58.8376H41.1875ZM26.36 42.0269H41.1875V26.8972H26.36V42.0269ZM42.835 42.0269H57.6625V26.8972H42.835V42.0269ZM59.31 42.0269H74.1375V26.8972H59.31V42.0269ZM75.785 42.0269H90.6125V26.8972H75.785V42.0269ZM92.26 42.0269H107.088V26.8972H92.26V42.0269ZM108.735 42.0269H123.563V26.8972H108.735V42.0269ZM125.21 42.0269H140.038V26.8972H125.21V42.0269ZM141.685 42.0269H156.513V26.8972H141.685V42.0269Z" fill="#F5BD33"/>
<path fill-rule="evenodd" clip-rule="evenodd" d="M9.885 8.40537V0H8.2375V8.40537H0V10.0864H8.2375V168.107H9.885V10.0864H164.75V8.40537H9.885Z" fill="#F5BD33"/>
</svg>
