<svg width="530" height="406" viewBox="0 0 530 406" fill="none" xmlns="http://www.w3.org/2000/svg">
<path opacity="0.5" fill-rule="evenodd" clip-rule="evenodd" d="M127.114 128.353H132.41V129.704H127.114V135.108H125.79V129.704H113.873V135.108H112.549V129.704H100.632V135.108H99.3075V129.704H87.3906V135.108H86.0665V129.704H74.1496V135.108H72.8255V129.704H60.9086V135.108H59.5845V129.704H47.6676V135.108H46.3435V129.704H34.4266V135.108H33.1025V129.704H21.1856V135.108H19.8615V129.704H0V128.353H19.8615V116.193H0V114.842H19.8615V102.682H0V101.331H19.8615V89.1716H0V87.8205H19.8615V75.6608H0V74.3097H19.8615V62.1499H0V60.7988H19.8615V48.6391H0V47.288H19.8615V35.1282H0V33.7771H19.8615V21.6174H0V20.2663H19.8615V0H21.1856V20.2663H33.1025V0H34.4266V20.2663H46.3435V0H47.6676V20.2663H59.5845V0H60.9086V20.2663H72.8255V0H74.1496V20.2663H86.0665V0H87.3906V20.2663H99.3075V0H100.632V20.2663H112.549V0H113.873V20.2663H125.79V0H127.114V20.2663H132.41V21.6174H127.114V33.7771H132.41V35.1282H127.114V47.288H132.41V48.6391H127.114V60.7988H132.41V62.1499H127.114V74.3097H132.41V75.6608H127.114V87.8205H132.41V89.1716H127.114V101.331H132.41V102.682H127.114V114.842H132.41V116.193H127.114V128.353ZM125.79 128.353V116.193H113.873V128.353H125.79ZM112.549 128.353V116.193H100.632V128.353H112.549ZM99.3075 128.353V116.193H87.3906V128.353H99.3075ZM86.0665 128.353V116.193H74.1496V128.353H86.0665ZM72.8255 128.353V116.193H60.9086V128.353H72.8255ZM59.5845 128.353V116.193H47.6676V128.353H59.5845ZM46.3435 128.353V116.193H34.4266V128.353H46.3435ZM33.1025 128.353V116.193H21.1856V128.353H33.1025ZM21.1856 114.842H33.1025V102.682H21.1856V114.842ZM34.4266 114.842H46.3435V102.682H34.4266V114.842ZM47.6676 114.842H59.5845V102.682H47.6676V114.842ZM60.9086 114.842H72.8255V102.682H60.9086V114.842ZM74.1496 114.842H86.0665V102.682H74.1496V114.842ZM87.3906 114.842H99.3075V102.682H87.3906V114.842ZM100.632 114.842H112.549V102.682H100.632V114.842ZM113.873 114.842H125.79V102.682H113.873V114.842ZM125.79 101.331V89.1716H113.873V101.331H125.79ZM112.549 101.331V89.1716H100.632V101.331H112.549ZM99.3075 101.331V89.1716H87.3906V101.331H99.3075ZM86.0665 101.331V89.1716H74.1496V101.331H86.0665ZM72.8255 101.331V89.1716H60.9086V101.331H72.8255ZM59.5845 101.331V89.1716H47.6676V101.331H59.5845ZM46.3435 101.331V89.1716H34.4266V101.331H46.3435ZM33.1025 101.331V89.1716H21.1856V101.331H33.1025ZM21.1856 87.8205H33.1025V75.6608H21.1856V87.8205ZM34.4266 87.8205H46.3435V75.6608H34.4266V87.8205ZM47.6676 87.8205H59.5845V75.6608H47.6676V87.8205ZM60.9086 87.8205H72.8255V75.6608H60.9086V87.8205ZM74.1496 87.8205H86.0665V75.6608H74.1496V87.8205ZM87.3906 87.8205H99.3075V75.6608H87.3906V87.8205ZM100.632 87.8205H112.549V75.6608H100.632V87.8205ZM113.873 87.8205H125.79V75.6608H113.873V87.8205ZM125.79 74.3097V62.1499H113.873V74.3097H125.79ZM112.549 74.3097V62.1499H100.632V74.3097H112.549ZM99.3075 74.3097V62.1499H87.3906V74.3097H99.3075ZM86.0665 74.3097V62.1499H74.1496V74.3097H86.0665ZM72.8255 74.3097V62.1499H60.9086V74.3097H72.8255ZM59.5845 74.3097V62.1499H47.6676V74.3097H59.5845ZM46.3435 74.3097V62.1499H34.4266V74.3097H46.3435ZM33.1025 74.3097V62.1499H21.1856V74.3097H33.1025ZM21.1856 60.7988H33.1025V48.6391H21.1856V60.7988ZM34.4266 60.7988H46.3435V48.6391H34.4266V60.7988ZM47.6676 60.7988H59.5845V48.6391H47.6676V60.7988ZM60.9086 60.7988H72.8255V48.6391H60.9086V60.7988ZM74.1496 60.7988H86.0665V48.6391H74.1496V60.7988ZM87.3906 60.7988H99.3075V48.6391H87.3906V60.7988ZM100.632 60.7988H112.549V48.6391H100.632V60.7988ZM113.873 60.7988H125.79V48.6391H113.873V60.7988ZM125.79 47.288V35.1282H113.873V47.288H125.79ZM112.549 47.288V35.1282H100.632V47.288H112.549ZM99.3075 47.288V35.1282H87.3906V47.288H99.3075ZM86.0665 47.288V35.1282H74.1496V47.288H86.0665ZM72.8255 47.288V35.1282H60.9086V47.288H72.8255ZM59.5845 47.288V35.1282H47.6676V47.288H59.5845ZM46.3435 47.288V35.1282H34.4266V47.288H46.3435ZM33.1025 47.288V35.1282H21.1856V47.288H33.1025ZM21.1856 33.7771H33.1025V21.6174H21.1856V33.7771ZM34.4266 33.7771H46.3435V21.6174H34.4266V33.7771ZM47.6676 33.7771H59.5845V21.6174H47.6676V33.7771ZM60.9086 33.7771H72.8255V21.6174H60.9086V33.7771ZM74.1496 33.7771H86.0665V21.6174H74.1496V33.7771ZM87.3906 33.7771H99.3075V21.6174H87.3906V33.7771ZM100.632 33.7771H112.549V21.6174H100.632V33.7771ZM113.873 33.7771H125.79V21.6174H113.873V33.7771Z" fill="#031F22"/>
<path fill-rule="evenodd" clip-rule="evenodd" d="M7.9446 6.75542V0H6.6205V6.75542H0V8.10651H6.6205V135.108H7.9446V8.10651H132.41V6.75542H7.9446Z" fill="#031F22"/>
<path opacity="0.5" fill-rule="evenodd" clip-rule="evenodd" d="M127.114 263.462H132.41V264.813H127.114V270.217H125.79V264.813H113.873V270.217H112.549V264.813H100.632V270.217H99.3075V264.813H87.3906V270.217H86.0665V264.813H74.1496V270.217H72.8255V264.813H60.9086V270.217H59.5845V264.813H47.6676V270.217H46.3435V264.813H34.4266V270.217H33.1025V264.813H21.1856V270.217H19.8615V264.813H0V263.462H19.8615V251.302H0V249.951H19.8615V237.791H0V236.44H19.8615V224.28H0V222.929H19.8615V210.769H0V209.418H19.8615V197.258H0V195.907H19.8615V183.748H0V182.396H19.8615V170.237H0V168.886H19.8615V156.726H0V155.375H19.8615V135.109H21.1856V155.375H33.1025V135.109H34.4266V155.375H46.3435V135.109H47.6676V155.375H59.5845V135.109H60.9086V155.375H72.8255V135.109H74.1496V155.375H86.0665V135.109H87.3906V155.375H99.3075V135.109H100.632V155.375H112.549V135.109H113.873V155.375H125.79V135.109H127.114V155.375H132.41V156.726H127.114V168.886H132.41V170.237H127.114V182.396H132.41V183.748H127.114V195.907H132.41V197.258H127.114V209.418H132.41V210.769H127.114V222.929H132.41V224.28H127.114V236.44H132.41V237.791H127.114V249.951H132.41V251.302H127.114V263.462ZM125.79 263.462V251.302H113.873V263.462H125.79ZM112.549 263.462V251.302H100.632V263.462H112.549ZM99.3075 263.462V251.302H87.3906V263.462H99.3075ZM86.0665 263.462V251.302H74.1496V263.462H86.0665ZM72.8255 263.462V251.302H60.9086V263.462H72.8255ZM59.5845 263.462V251.302H47.6676V263.462H59.5845ZM46.3435 263.462V251.302H34.4266V263.462H46.3435ZM33.1025 263.462V251.302H21.1856V263.462H33.1025ZM21.1856 249.951H33.1025V237.791H21.1856V249.951ZM34.4266 249.951H46.3435V237.791H34.4266V249.951ZM47.6676 249.951H59.5845V237.791H47.6676V249.951ZM60.9086 249.951H72.8255V237.791H60.9086V249.951ZM74.1496 249.951H86.0665V237.791H74.1496V249.951ZM87.3906 249.951H99.3075V237.791H87.3906V249.951ZM100.632 249.951H112.549V237.791H100.632V249.951ZM113.873 249.951H125.79V237.791H113.873V249.951ZM125.79 236.44V224.28H113.873V236.44H125.79ZM112.549 236.44V224.28H100.632V236.44H112.549ZM99.3075 236.44V224.28H87.3906V236.44H99.3075ZM86.0665 236.44V224.28H74.1496V236.44H86.0665ZM72.8255 236.44V224.28H60.9086V236.44H72.8255ZM59.5845 236.44V224.28H47.6676V236.44H59.5845ZM46.3435 236.44V224.28H34.4266V236.44H46.3435ZM33.1025 236.44V224.28H21.1856V236.44H33.1025ZM21.1856 222.929H33.1025V210.769H21.1856V222.929ZM34.4266 222.929H46.3435V210.769H34.4266V222.929ZM47.6676 222.929H59.5845V210.769H47.6676V222.929ZM60.9086 222.929H72.8255V210.769H60.9086V222.929ZM74.1496 222.929H86.0665V210.769H74.1496V222.929ZM87.3906 222.929H99.3075V210.769H87.3906V222.929ZM100.632 222.929H112.549V210.769H100.632V222.929ZM113.873 222.929H125.79V210.769H113.873V222.929ZM125.79 209.418V197.258H113.873V209.418H125.79ZM112.549 209.418V197.258H100.632V209.418H112.549ZM99.3075 209.418V197.258H87.3906V209.418H99.3075ZM86.0665 209.418V197.258H74.1496V209.418H86.0665ZM72.8255 209.418V197.258H60.9086V209.418H72.8255ZM59.5845 209.418V197.258H47.6676V209.418H59.5845ZM46.3435 209.418V197.258H34.4266V209.418H46.3435ZM33.1025 209.418V197.258H21.1856V209.418H33.1025ZM21.1856 195.907H33.1025V183.748H21.1856V195.907ZM34.4266 195.907H46.3435V183.748H34.4266V195.907ZM47.6676 195.907H59.5845V183.748H47.6676V195.907ZM60.9086 195.907H72.8255V183.748H60.9086V195.907ZM74.1496 195.907H86.0665V183.748H74.1496V195.907ZM87.3906 195.907H99.3075V183.748H87.3906V195.907ZM100.632 195.907H112.549V183.748H100.632V195.907ZM113.873 195.907H125.79V183.748H113.873V195.907ZM125.79 182.396V170.237H113.873V182.396H125.79ZM112.549 182.396V170.237H100.632V182.396H112.549ZM99.3075 182.396V170.237H87.3906V182.396H99.3075ZM86.0665 182.396V170.237H74.1496V182.396H86.0665ZM72.8255 182.396V170.237H60.9086V182.396H72.8255ZM59.5845 182.396V170.237H47.6676V182.396H59.5845ZM46.3435 182.396V170.237H34.4266V182.396H46.3435ZM33.1025 182.396V170.237H21.1856V182.396H33.1025ZM21.1856 168.886H33.1025V156.726H21.1856V168.886ZM34.4266 168.886H46.3435V156.726H34.4266V168.886ZM47.6676 168.886H59.5845V156.726H47.6676V168.886ZM60.9086 168.886H72.8255V156.726H60.9086V168.886ZM74.1496 168.886H86.0665V156.726H74.1496V168.886ZM87.3906 168.886H99.3075V156.726H87.3906V168.886ZM100.632 168.886H112.549V156.726H100.632V168.886ZM113.873 168.886H125.79V156.726H113.873V168.886Z" fill="#031F22"/>
<path fill-rule="evenodd" clip-rule="evenodd" d="M7.9446 141.864V135.109H6.6205V141.864H0V143.215H6.6205V270.217H7.9446V143.215H132.41V141.864H7.9446Z" fill="#031F22"/>
<path opacity="0.5" fill-rule="evenodd" clip-rule="evenodd" d="M127.114 398.57H132.41V399.921H127.114V405.325H125.79V399.921H113.873V405.325H112.549V399.921H100.632V405.325H99.3075V399.921H87.3906V405.325H86.0665V399.921H74.1496V405.325H72.8255V399.921H60.9086V405.325H59.5845V399.921H47.6676V405.325H46.3435V399.921H34.4266V405.325H33.1025V399.921H21.1856V405.325H19.8615V399.921H0V398.57H19.8615V386.41H0V385.059H19.8615V372.899H0V371.548H19.8615V359.389H0V358.037H19.8615V345.878H0V344.527H19.8615V332.367H0V331.016H19.8615V318.856H0V317.505H19.8615V305.345H0V303.994H19.8615V291.834H0V290.483H19.8615V270.217H21.1856V290.483H33.1025V270.217H34.4266V290.483H46.3435V270.217H47.6676V290.483H59.5845V270.217H60.9086V290.483H72.8255V270.217H74.1496V290.483H86.0665V270.217H87.3906V290.483H99.3075V270.217H100.632V290.483H112.549V270.217H113.873V290.483H125.79V270.217H127.114V290.483H132.41V291.834H127.114V303.994H132.41V305.345H127.114V317.505H132.41V318.856H127.114V331.016H132.41V332.367H127.114V344.527H132.41V345.878H127.114V358.037H132.41V359.389H127.114V371.548H132.41V372.899H127.114V385.059H132.41V386.41H127.114V398.57ZM125.79 398.57V386.41H113.873V398.57H125.79ZM112.549 398.57V386.41H100.632V398.57H112.549ZM99.3075 398.57V386.41H87.3906V398.57H99.3075ZM86.0665 398.57V386.41H74.1496V398.57H86.0665ZM72.8255 398.57V386.41H60.9086V398.57H72.8255ZM59.5845 398.57V386.41H47.6676V398.57H59.5845ZM46.3435 398.57V386.41H34.4266V398.57H46.3435ZM33.1025 398.57V386.41H21.1856V398.57H33.1025ZM21.1856 385.059H33.1025V372.899H21.1856V385.059ZM34.4266 385.059H46.3435V372.899H34.4266V385.059ZM47.6676 385.059H59.5845V372.899H47.6676V385.059ZM60.9086 385.059H72.8255V372.899H60.9086V385.059ZM74.1496 385.059H86.0665V372.899H74.1496V385.059ZM87.3906 385.059H99.3075V372.899H87.3906V385.059ZM100.632 385.059H112.549V372.899H100.632V385.059ZM113.873 385.059H125.79V372.899H113.873V385.059ZM125.79 371.548V359.389H113.873V371.548H125.79ZM112.549 371.548V359.389H100.632V371.548H112.549ZM99.3075 371.548V359.389H87.3906V371.548H99.3075ZM86.0665 371.548V359.389H74.1496V371.548H86.0665ZM72.8255 371.548V359.389H60.9086V371.548H72.8255ZM59.5845 371.548V359.389H47.6676V371.548H59.5845ZM46.3435 371.548V359.389H34.4266V371.548H46.3435ZM33.1025 371.548V359.389H21.1856V371.548H33.1025ZM21.1856 358.037H33.1025V345.878H21.1856V358.037ZM34.4266 358.037H46.3435V345.878H34.4266V358.037ZM47.6676 358.037H59.5845V345.878H47.6676V358.037ZM60.9086 358.037H72.8255V345.878H60.9086V358.037ZM74.1496 358.037H86.0665V345.878H74.1496V358.037ZM87.3906 358.037H99.3075V345.878H87.3906V358.037ZM100.632 358.037H112.549V345.878H100.632V358.037ZM113.873 358.037H125.79V345.878H113.873V358.037ZM125.79 344.527V332.367H113.873V344.527H125.79ZM112.549 344.527V332.367H100.632V344.527H112.549ZM99.3075 344.527V332.367H87.3906V344.527H99.3075ZM86.0665 344.527V332.367H74.1496V344.527H86.0665ZM72.8255 344.527V332.367H60.9086V344.527H72.8255ZM59.5845 344.527V332.367H47.6676V344.527H59.5845ZM46.3435 344.527V332.367H34.4266V344.527H46.3435ZM33.1025 344.527V332.367H21.1856V344.527H33.1025ZM21.1856 331.016H33.1025V318.856H21.1856V331.016ZM34.4266 331.016H46.3435V318.856H34.4266V331.016ZM47.6676 331.016H59.5845V318.856H47.6676V331.016ZM60.9086 331.016H72.8255V318.856H60.9086V331.016ZM74.1496 331.016H86.0665V318.856H74.1496V331.016ZM87.3906 331.016H99.3075V318.856H87.3906V331.016ZM100.632 331.016H112.549V318.856H100.632V331.016ZM113.873 331.016H125.79V318.856H113.873V331.016ZM125.79 317.505V305.345H113.873V317.505H125.79ZM112.549 317.505V305.345H100.632V317.505H112.549ZM99.3075 317.505V305.345H87.3906V317.505H99.3075ZM86.0665 317.505V305.345H74.1496V317.505H86.0665ZM72.8255 317.505V305.345H60.9086V317.505H72.8255ZM59.5845 317.505V305.345H47.6676V317.505H59.5845ZM46.3435 317.505V305.345H34.4266V317.505H46.3435ZM33.1025 317.505V305.345H21.1856V317.505H33.1025ZM21.1856 303.994H33.1025V291.834H21.1856V303.994ZM34.4266 303.994H46.3435V291.834H34.4266V303.994ZM47.6676 303.994H59.5845V291.834H47.6676V303.994ZM60.9086 303.994H72.8255V291.834H60.9086V303.994ZM74.1496 303.994H86.0665V291.834H74.1496V303.994ZM87.3906 303.994H99.3075V291.834H87.3906V303.994ZM100.632 303.994H112.549V291.834H100.632V303.994ZM113.873 303.994H125.79V291.834H113.873V303.994Z" fill="#031F22"/>
<path fill-rule="evenodd" clip-rule="evenodd" d="M7.9446 276.972V270.217H6.6205V276.972H0V278.323H6.6205V405.325H7.9446V278.323H132.41V276.972H7.9446Z" fill="#031F22"/>
<path opacity="0.5" fill-rule="evenodd" clip-rule="evenodd" d="M391.934 128.353H397.23V129.704H391.934V135.108H390.61V129.704H378.693V135.108H377.369V129.704H365.452V135.108H364.128V129.704H352.211V135.108H350.887V129.704H338.97V135.108H337.646V129.704H325.729V135.108H324.405V129.704H312.488V135.108H311.164V129.704H299.247V135.108H297.923V129.704H286.006V135.108H284.682V129.704H264.82V128.353H284.682V116.193H264.82V114.842H284.682V102.682H264.82V101.331H284.682V89.1716H264.82V87.8205H284.682V75.6608H264.82V74.3097H284.682V62.1499H264.82V60.7988H284.682V48.6391H264.82V47.288H284.682V35.1282H264.82V33.7771H284.682V21.6174H264.82V20.2663H284.682V0H286.006V20.2663H297.923V0H299.247V20.2663H311.164V0H312.488V20.2663H324.405V0H325.729V20.2663H337.646V0H338.97V20.2663H350.887V0H352.211V20.2663H364.128V0H365.452V20.2663H377.369V0H378.693V20.2663H390.61V0H391.934V20.2663H397.23V21.6174H391.934V33.7771H397.23V35.1282H391.934V47.288H397.23V48.6391H391.934V60.7988H397.23V62.1499H391.934V74.3097H397.23V75.6608H391.934V87.8205H397.23V89.1716H391.934V101.331H397.23V102.682H391.934V114.842H397.23V116.193H391.934V128.353ZM390.61 128.353V116.193H378.693V128.353H390.61ZM377.369 128.353V116.193H365.452V128.353H377.369ZM364.128 128.353V116.193H352.211V128.353H364.128ZM350.887 128.353V116.193H338.97V128.353H350.887ZM337.646 128.353V116.193H325.729V128.353H337.646ZM324.405 128.353V116.193H312.488V128.353H324.405ZM311.164 128.353V116.193H299.247V128.353H311.164ZM297.923 128.353V116.193H286.006V128.353H297.923ZM286.006 114.842H297.923V102.682H286.006V114.842ZM299.247 114.842H311.164V102.682H299.247V114.842ZM312.488 114.842H324.405V102.682H312.488V114.842ZM325.729 114.842H337.646V102.682H325.729V114.842ZM338.97 114.842H350.887V102.682H338.97V114.842ZM352.211 114.842H364.128V102.682H352.211V114.842ZM365.452 114.842H377.369V102.682H365.452V114.842ZM378.693 114.842H390.61V102.682H378.693V114.842ZM390.61 101.331V89.1716H378.693V101.331H390.61ZM377.369 101.331V89.1716H365.452V101.331H377.369ZM364.128 101.331V89.1716H352.211V101.331H364.128ZM350.887 101.331V89.1716H338.97V101.331H350.887ZM337.646 101.331V89.1716H325.729V101.331H337.646ZM324.405 101.331V89.1716H312.488V101.331H324.405ZM311.164 101.331V89.1716H299.247V101.331H311.164ZM297.923 101.331V89.1716H286.006V101.331H297.923ZM286.006 87.8205H297.923V75.6608H286.006V87.8205ZM299.247 87.8205H311.164V75.6608H299.247V87.8205ZM312.488 87.8205H324.405V75.6608H312.488V87.8205ZM325.729 87.8205H337.646V75.6608H325.729V87.8205ZM338.97 87.8205H350.887V75.6608H338.97V87.8205ZM352.211 87.8205H364.128V75.6608H352.211V87.8205ZM365.452 87.8205H377.369V75.6608H365.452V87.8205ZM378.693 87.8205H390.61V75.6608H378.693V87.8205ZM390.61 74.3097V62.1499H378.693V74.3097H390.61ZM377.369 74.3097V62.1499H365.452V74.3097H377.369ZM364.128 74.3097V62.1499H352.211V74.3097H364.128ZM350.887 74.3097V62.1499H338.97V74.3097H350.887ZM337.646 74.3097V62.1499H325.729V74.3097H337.646ZM324.405 74.3097V62.1499H312.488V74.3097H324.405ZM311.164 74.3097V62.1499H299.247V74.3097H311.164ZM297.923 74.3097V62.1499H286.006V74.3097H297.923ZM286.006 60.7988H297.923V48.6391H286.006V60.7988ZM299.247 60.7988H311.164V48.6391H299.247V60.7988ZM312.488 60.7988H324.405V48.6391H312.488V60.7988ZM325.729 60.7988H337.646V48.6391H325.729V60.7988ZM338.97 60.7988H350.887V48.6391H338.97V60.7988ZM352.211 60.7988H364.128V48.6391H352.211V60.7988ZM365.452 60.7988H377.369V48.6391H365.452V60.7988ZM378.693 60.7988H390.61V48.6391H378.693V60.7988ZM390.61 47.288V35.1282H378.693V47.288H390.61ZM377.369 47.288V35.1282H365.452V47.288H377.369ZM364.128 47.288V35.1282H352.211V47.288H364.128ZM350.887 47.288V35.1282H338.97V47.288H350.887ZM337.646 47.288V35.1282H325.729V47.288H337.646ZM324.405 47.288V35.1282H312.488V47.288H324.405ZM311.164 47.288V35.1282H299.247V47.288H311.164ZM297.923 47.288V35.1282H286.006V47.288H297.923ZM286.006 33.7771H297.923V21.6174H286.006V33.7771ZM299.247 33.7771H311.164V21.6174H299.247V33.7771ZM312.488 33.7771H324.405V21.6174H312.488V33.7771ZM325.729 33.7771H337.646V21.6174H325.729V33.7771ZM338.97 33.7771H350.887V21.6174H338.97V33.7771ZM352.211 33.7771H364.128V21.6174H352.211V33.7771ZM365.452 33.7771H377.369V21.6174H365.452V33.7771ZM378.693 33.7771H390.61V21.6174H378.693V33.7771Z" fill="#031F22"/>
<path fill-rule="evenodd" clip-rule="evenodd" d="M272.765 6.75542V0H271.441V6.75542H264.82V8.10651H271.441V135.108H272.765V8.10651H397.23V6.75542H272.765Z" fill="#031F22"/>
<path opacity="0.5" fill-rule="evenodd" clip-rule="evenodd" d="M391.934 263.462H397.23V264.813H391.934V270.217H390.61V264.813H378.693V270.217H377.369V264.813H365.452V270.217H364.128V264.813H352.211V270.217H350.887V264.813H338.97V270.217H337.646V264.813H325.729V270.217H324.405V264.813H312.488V270.217H311.164V264.813H299.247V270.217H297.923V264.813H286.006V270.217H284.682V264.813H264.82V263.462H284.682V251.302H264.82V249.951H284.682V237.791H264.82V236.44H284.682V224.28H264.82V222.929H284.682V210.769H264.82V209.418H284.682V197.258H264.82V195.907H284.682V183.748H264.82V182.396H284.682V170.237H264.82V168.886H284.682V156.726H264.82V155.375H284.682V135.109H286.006V155.375H297.923V135.109H299.247V155.375H311.164V135.109H312.488V155.375H324.405V135.109H325.729V155.375H337.646V135.109H338.97V155.375H350.887V135.109H352.211V155.375H364.128V135.109H365.452V155.375H377.369V135.109H378.693V155.375H390.61V135.109H391.934V155.375H397.23V156.726H391.934V168.886H397.23V170.237H391.934V182.396H397.23V183.748H391.934V195.907H397.23V197.258H391.934V209.418H397.23V210.769H391.934V222.929H397.23V224.28H391.934V236.44H397.23V237.791H391.934V249.951H397.23V251.302H391.934V263.462ZM390.61 263.462V251.302H378.693V263.462H390.61ZM377.369 263.462V251.302H365.452V263.462H377.369ZM364.128 263.462V251.302H352.211V263.462H364.128ZM350.887 263.462V251.302H338.97V263.462H350.887ZM337.646 263.462V251.302H325.729V263.462H337.646ZM324.405 263.462V251.302H312.488V263.462H324.405ZM311.164 263.462V251.302H299.247V263.462H311.164ZM297.923 263.462V251.302H286.006V263.462H297.923ZM286.006 249.951H297.923V237.791H286.006V249.951ZM299.247 249.951H311.164V237.791H299.247V249.951ZM312.488 249.951H324.405V237.791H312.488V249.951ZM325.729 249.951H337.646V237.791H325.729V249.951ZM338.97 249.951H350.887V237.791H338.97V249.951ZM352.211 249.951H364.128V237.791H352.211V249.951ZM365.452 249.951H377.369V237.791H365.452V249.951ZM378.693 249.951H390.61V237.791H378.693V249.951ZM390.61 236.44V224.28H378.693V236.44H390.61ZM377.369 236.44V224.28H365.452V236.44H377.369ZM364.128 236.44V224.28H352.211V236.44H364.128ZM350.887 236.44V224.28H338.97V236.44H350.887ZM337.646 236.44V224.28H325.729V236.44H337.646ZM324.405 236.44V224.28H312.488V236.44H324.405ZM311.164 236.44V224.28H299.247V236.44H311.164ZM297.923 236.44V224.28H286.006V236.44H297.923ZM286.006 222.929H297.923V210.769H286.006V222.929ZM299.247 222.929H311.164V210.769H299.247V222.929ZM312.488 222.929H324.405V210.769H312.488V222.929ZM325.729 222.929H337.646V210.769H325.729V222.929ZM338.97 222.929H350.887V210.769H338.97V222.929ZM352.211 222.929H364.128V210.769H352.211V222.929ZM365.452 222.929H377.369V210.769H365.452V222.929ZM378.693 222.929H390.61V210.769H378.693V222.929ZM390.61 209.418V197.258H378.693V209.418H390.61ZM377.369 209.418V197.258H365.452V209.418H377.369ZM364.128 209.418V197.258H352.211V209.418H364.128ZM350.887 209.418V197.258H338.97V209.418H350.887ZM337.646 209.418V197.258H325.729V209.418H337.646ZM324.405 209.418V197.258H312.488V209.418H324.405ZM311.164 209.418V197.258H299.247V209.418H311.164ZM297.923 209.418V197.258H286.006V209.418H297.923ZM286.006 195.907H297.923V183.748H286.006V195.907ZM299.247 195.907H311.164V183.748H299.247V195.907ZM312.488 195.907H324.405V183.748H312.488V195.907ZM325.729 195.907H337.646V183.748H325.729V195.907ZM338.97 195.907H350.887V183.748H338.97V195.907ZM352.211 195.907H364.128V183.748H352.211V195.907ZM365.452 195.907H377.369V183.748H365.452V195.907ZM378.693 195.907H390.61V183.748H378.693V195.907ZM390.61 182.396V170.237H378.693V182.396H390.61ZM377.369 182.396V170.237H365.452V182.396H377.369ZM364.128 182.396V170.237H352.211V182.396H364.128ZM350.887 182.396V170.237H338.97V182.396H350.887ZM337.646 182.396V170.237H325.729V182.396H337.646ZM324.405 182.396V170.237H312.488V182.396H324.405ZM311.164 182.396V170.237H299.247V182.396H311.164ZM297.923 182.396V170.237H286.006V182.396H297.923ZM286.006 168.886H297.923V156.726H286.006V168.886ZM299.247 168.886H311.164V156.726H299.247V168.886ZM312.488 168.886H324.405V156.726H312.488V168.886ZM325.729 168.886H337.646V156.726H325.729V168.886ZM338.97 168.886H350.887V156.726H338.97V168.886ZM352.211 168.886H364.128V156.726H352.211V168.886ZM365.452 168.886H377.369V156.726H365.452V168.886ZM378.693 168.886H390.61V156.726H378.693V168.886Z" fill="#031F22"/>
<path fill-rule="evenodd" clip-rule="evenodd" d="M272.765 141.864V135.109H271.441V141.864H264.82V143.215H271.441V270.217H272.765V143.215H397.23V141.864H272.765Z" fill="#031F22"/>
<path opacity="0.5" fill-rule="evenodd" clip-rule="evenodd" d="M391.934 398.57H397.23V399.921H391.934V405.325H390.61V399.921H378.693V405.325H377.369V399.921H365.452V405.325H364.128V399.921H352.211V405.325H350.887V399.921H338.97V405.325H337.646V399.921H325.729V405.325H324.405V399.921H312.488V405.325H311.164V399.921H299.247V405.325H297.923V399.921H286.006V405.325H284.682V399.921H264.82V398.57H284.682V386.41H264.82V385.059H284.682V372.899H264.82V371.548H284.682V359.389H264.82V358.037H284.682V345.878H264.82V344.527H284.682V332.367H264.82V331.016H284.682V318.856H264.82V317.505H284.682V305.345H264.82V303.994H284.682V291.834H264.82V290.483H284.682V270.217H286.006V290.483H297.923V270.217H299.247V290.483H311.164V270.217H312.488V290.483H324.405V270.217H325.729V290.483H337.646V270.217H338.97V290.483H350.887V270.217H352.211V290.483H364.128V270.217H365.452V290.483H377.369V270.217H378.693V290.483H390.61V270.217H391.934V290.483H397.23V291.834H391.934V303.994H397.23V305.345H391.934V317.505H397.23V318.856H391.934V331.016H397.23V332.367H391.934V344.527H397.23V345.878H391.934V358.037H397.23V359.389H391.934V371.548H397.23V372.899H391.934V385.059H397.23V386.41H391.934V398.57ZM390.61 398.57V386.41H378.693V398.57H390.61ZM377.369 398.57V386.41H365.452V398.57H377.369ZM364.128 398.57V386.41H352.211V398.57H364.128ZM350.887 398.57V386.41H338.97V398.57H350.887ZM337.646 398.57V386.41H325.729V398.57H337.646ZM324.405 398.57V386.41H312.488V398.57H324.405ZM311.164 398.57V386.41H299.247V398.57H311.164ZM297.923 398.57V386.41H286.006V398.57H297.923ZM286.006 385.059H297.923V372.899H286.006V385.059ZM299.247 385.059H311.164V372.899H299.247V385.059ZM312.488 385.059H324.405V372.899H312.488V385.059ZM325.729 385.059H337.646V372.899H325.729V385.059ZM338.97 385.059H350.887V372.899H338.97V385.059ZM352.211 385.059H364.128V372.899H352.211V385.059ZM365.452 385.059H377.369V372.899H365.452V385.059ZM378.693 385.059H390.61V372.899H378.693V385.059ZM390.61 371.548V359.389H378.693V371.548H390.61ZM377.369 371.548V359.389H365.452V371.548H377.369ZM364.128 371.548V359.389H352.211V371.548H364.128ZM350.887 371.548V359.389H338.97V371.548H350.887ZM337.646 371.548V359.389H325.729V371.548H337.646ZM324.405 371.548V359.389H312.488V371.548H324.405ZM311.164 371.548V359.389H299.247V371.548H311.164ZM297.923 371.548V359.389H286.006V371.548H297.923ZM286.006 358.037H297.923V345.878H286.006V358.037ZM299.247 358.037H311.164V345.878H299.247V358.037ZM312.488 358.037H324.405V345.878H312.488V358.037ZM325.729 358.037H337.646V345.878H325.729V358.037ZM338.97 358.037H350.887V345.878H338.97V358.037ZM352.211 358.037H364.128V345.878H352.211V358.037ZM365.452 358.037H377.369V345.878H365.452V358.037ZM378.693 358.037H390.61V345.878H378.693V358.037ZM390.61 344.527V332.367H378.693V344.527H390.61ZM377.369 344.527V332.367H365.452V344.527H377.369ZM364.128 344.527V332.367H352.211V344.527H364.128ZM350.887 344.527V332.367H338.97V344.527H350.887ZM337.646 344.527V332.367H325.729V344.527H337.646ZM324.405 344.527V332.367H312.488V344.527H324.405ZM311.164 344.527V332.367H299.247V344.527H311.164ZM297.923 344.527V332.367H286.006V344.527H297.923ZM286.006 331.016H297.923V318.856H286.006V331.016ZM299.247 331.016H311.164V318.856H299.247V331.016ZM312.488 331.016H324.405V318.856H312.488V331.016ZM325.729 331.016H337.646V318.856H325.729V331.016ZM338.97 331.016H350.887V318.856H338.97V331.016ZM352.211 331.016H364.128V318.856H352.211V331.016ZM365.452 331.016H377.369V318.856H365.452V331.016ZM378.693 331.016H390.61V318.856H378.693V331.016ZM390.61 317.505V305.345H378.693V317.505H390.61ZM377.369 317.505V305.345H365.452V317.505H377.369ZM364.128 317.505V305.345H352.211V317.505H364.128ZM350.887 317.505V305.345H338.97V317.505H350.887ZM337.646 317.505V305.345H325.729V317.505H337.646ZM324.405 317.505V305.345H312.488V317.505H324.405ZM311.164 317.505V305.345H299.247V317.505H311.164ZM297.923 317.505V305.345H286.006V317.505H297.923ZM286.006 303.994H297.923V291.834H286.006V303.994ZM299.247 303.994H311.164V291.834H299.247V303.994ZM312.488 303.994H324.405V291.834H312.488V303.994ZM325.729 303.994H337.646V291.834H325.729V303.994ZM338.97 303.994H350.887V291.834H338.97V303.994ZM352.211 303.994H364.128V291.834H352.211V303.994ZM365.452 303.994H377.369V291.834H365.452V303.994ZM378.693 303.994H390.61V291.834H378.693V303.994Z" fill="#031F22"/>
<path fill-rule="evenodd" clip-rule="evenodd" d="M272.765 276.972V270.217H271.441V276.972H264.82V278.323H271.441V405.325H272.765V278.323H397.23V276.972H272.765Z" fill="#031F22"/>
<path opacity="0.5" fill-rule="evenodd" clip-rule="evenodd" d="M259.524 128.353H264.82V129.704H259.524V135.108H258.2V129.704H246.283V135.108H244.959V129.704H233.042V135.108H231.718V129.704H219.801V135.108H218.477V129.704H206.56V135.108H205.236V129.704H193.319V135.108H191.995V129.704H180.078V135.108H178.754V129.704H166.837V135.108H165.513V129.704H153.596V135.108H152.272V129.704H132.41V128.353H152.272V116.193H132.41V114.842H152.272V102.682H132.41V101.331H152.272V89.1716H132.41V87.8205H152.272V75.6608H132.41V74.3097H152.272V62.1499H132.41V60.7988H152.272V48.6391H132.41V47.288H152.272V35.1282H132.41V33.7771H152.272V21.6174H132.41V20.2663H152.272V0H153.596V20.2663H165.513V0H166.837V20.2663H178.754V0H180.078V20.2663H191.995V0H193.319V20.2663H205.236V0H206.56V20.2663H218.477V0H219.801V20.2663H231.718V0H233.042V20.2663H244.959V0H246.283V20.2663H258.2V0H259.524V20.2663H264.82V21.6174H259.524V33.7771H264.82V35.1282H259.524V47.288H264.82V48.6391H259.524V60.7988H264.82V62.1499H259.524V74.3097H264.82V75.6608H259.524V87.8205H264.82V89.1716H259.524V101.331H264.82V102.682H259.524V114.842H264.82V116.193H259.524V128.353ZM258.2 128.353V116.193H246.283V128.353H258.2ZM244.959 128.353V116.193H233.042V128.353H244.959ZM231.718 128.353V116.193H219.801V128.353H231.718ZM218.477 128.353V116.193H206.56V128.353H218.477ZM205.236 128.353V116.193H193.319V128.353H205.236ZM191.995 128.353V116.193H180.078V128.353H191.995ZM178.754 128.353V116.193H166.837V128.353H178.754ZM165.513 128.353V116.193H153.596V128.353H165.513ZM153.596 114.842H165.513V102.682H153.596V114.842ZM166.837 114.842H178.754V102.682H166.837V114.842ZM180.078 114.842H191.995V102.682H180.078V114.842ZM193.319 114.842H205.236V102.682H193.319V114.842ZM206.56 114.842H218.477V102.682H206.56V114.842ZM219.801 114.842H231.718V102.682H219.801V114.842ZM233.042 114.842H244.959V102.682H233.042V114.842ZM246.283 114.842H258.2V102.682H246.283V114.842ZM258.2 101.331V89.1716H246.283V101.331H258.2ZM244.959 101.331V89.1716H233.042V101.331H244.959ZM231.718 101.331V89.1716H219.801V101.331H231.718ZM218.477 101.331V89.1716H206.56V101.331H218.477ZM205.236 101.331V89.1716H193.319V101.331H205.236ZM191.995 101.331V89.1716H180.078V101.331H191.995ZM178.754 101.331V89.1716H166.837V101.331H178.754ZM165.513 101.331V89.1716H153.596V101.331H165.513ZM153.596 87.8205H165.513V75.6608H153.596V87.8205ZM166.837 87.8205H178.754V75.6608H166.837V87.8205ZM180.078 87.8205H191.995V75.6608H180.078V87.8205ZM193.319 87.8205H205.236V75.6608H193.319V87.8205ZM206.56 87.8205H218.477V75.6608H206.56V87.8205ZM219.801 87.8205H231.718V75.6608H219.801V87.8205ZM233.042 87.8205H244.959V75.6608H233.042V87.8205ZM246.283 87.8205H258.2V75.6608H246.283V87.8205ZM258.2 74.3097V62.1499H246.283V74.3097H258.2ZM244.959 74.3097V62.1499H233.042V74.3097H244.959ZM231.718 74.3097V62.1499H219.801V74.3097H231.718ZM218.477 74.3097V62.1499H206.56V74.3097H218.477ZM205.236 74.3097V62.1499H193.319V74.3097H205.236ZM191.995 74.3097V62.1499H180.078V74.3097H191.995ZM178.754 74.3097V62.1499H166.837V74.3097H178.754ZM165.513 74.3097V62.1499H153.596V74.3097H165.513ZM153.596 60.7988H165.513V48.6391H153.596V60.7988ZM166.837 60.7988H178.754V48.6391H166.837V60.7988ZM180.078 60.7988H191.995V48.6391H180.078V60.7988ZM193.319 60.7988H205.236V48.6391H193.319V60.7988ZM206.56 60.7988H218.477V48.6391H206.56V60.7988ZM219.801 60.7988H231.718V48.6391H219.801V60.7988ZM233.042 60.7988H244.959V48.6391H233.042V60.7988ZM246.283 60.7988H258.2V48.6391H246.283V60.7988ZM258.2 47.288V35.1282H246.283V47.288H258.2ZM244.959 47.288V35.1282H233.042V47.288H244.959ZM231.718 47.288V35.1282H219.801V47.288H231.718ZM218.477 47.288V35.1282H206.56V47.288H218.477ZM205.236 47.288V35.1282H193.319V47.288H205.236ZM191.995 47.288V35.1282H180.078V47.288H191.995ZM178.754 47.288V35.1282H166.837V47.288H178.754ZM165.513 47.288V35.1282H153.596V47.288H165.513ZM153.596 33.7771H165.513V21.6174H153.596V33.7771ZM166.837 33.7771H178.754V21.6174H166.837V33.7771ZM180.078 33.7771H191.995V21.6174H180.078V33.7771ZM193.319 33.7771H205.236V21.6174H193.319V33.7771ZM206.56 33.7771H218.477V21.6174H206.56V33.7771ZM219.801 33.7771H231.718V21.6174H219.801V33.7771ZM233.042 33.7771H244.959V21.6174H233.042V33.7771ZM246.283 33.7771H258.2V21.6174H246.283V33.7771Z" fill="#031F22"/>
<path fill-rule="evenodd" clip-rule="evenodd" d="M140.355 6.75542V0H139.031V6.75542H132.41V8.10651H139.031V135.108H140.355V8.10651H264.82V6.75542H140.355Z" fill="#031F22"/>
<path opacity="0.5" fill-rule="evenodd" clip-rule="evenodd" d="M259.524 263.462H264.82V264.813H259.524V270.217H258.2V264.813H246.283V270.217H244.959V264.813H233.042V270.217H231.718V264.813H219.801V270.217H218.477V264.813H206.56V270.217H205.236V264.813H193.319V270.217H191.995V264.813H180.078V270.217H178.754V264.813H166.837V270.217H165.513V264.813H153.596V270.217H152.272V264.813H132.41V263.462H152.272V251.302H132.41V249.951H152.272V237.791H132.41V236.44H152.272V224.28H132.41V222.929H152.272V210.769H132.41V209.418H152.272V197.258H132.41V195.907H152.272V183.748H132.41V182.396H152.272V170.237H132.41V168.886H152.272V156.726H132.41V155.375H152.272V135.109H153.596V155.375H165.513V135.109H166.837V155.375H178.754V135.109H180.078V155.375H191.995V135.109H193.319V155.375H205.236V135.109H206.56V155.375H218.477V135.109H219.801V155.375H231.718V135.109H233.042V155.375H244.959V135.109H246.283V155.375H258.2V135.109H259.524V155.375H264.82V156.726H259.524V168.886H264.82V170.237H259.524V182.396H264.82V183.748H259.524V195.907H264.82V197.258H259.524V209.418H264.82V210.769H259.524V222.929H264.82V224.28H259.524V236.44H264.82V237.791H259.524V249.951H264.82V251.302H259.524V263.462ZM258.2 263.462V251.302H246.283V263.462H258.2ZM244.959 263.462V251.302H233.042V263.462H244.959ZM231.718 263.462V251.302H219.801V263.462H231.718ZM218.477 263.462V251.302H206.56V263.462H218.477ZM205.236 263.462V251.302H193.319V263.462H205.236ZM191.995 263.462V251.302H180.078V263.462H191.995ZM178.754 263.462V251.302H166.837V263.462H178.754ZM165.513 263.462V251.302H153.596V263.462H165.513ZM153.596 249.951H165.513V237.791H153.596V249.951ZM166.837 249.951H178.754V237.791H166.837V249.951ZM180.078 249.951H191.995V237.791H180.078V249.951ZM193.319 249.951H205.236V237.791H193.319V249.951ZM206.56 249.951H218.477V237.791H206.56V249.951ZM219.801 249.951H231.718V237.791H219.801V249.951ZM233.042 249.951H244.959V237.791H233.042V249.951ZM246.283 249.951H258.2V237.791H246.283V249.951ZM258.2 236.44V224.28H246.283V236.44H258.2ZM244.959 236.44V224.28H233.042V236.44H244.959ZM231.718 236.44V224.28H219.801V236.44H231.718ZM218.477 236.44V224.28H206.56V236.44H218.477ZM205.236 236.44V224.28H193.319V236.44H205.236ZM191.995 236.44V224.28H180.078V236.44H191.995ZM178.754 236.44V224.28H166.837V236.44H178.754ZM165.513 236.44V224.28H153.596V236.44H165.513ZM153.596 222.929H165.513V210.769H153.596V222.929ZM166.837 222.929H178.754V210.769H166.837V222.929ZM180.078 222.929H191.995V210.769H180.078V222.929ZM193.319 222.929H205.236V210.769H193.319V222.929ZM206.56 222.929H218.477V210.769H206.56V222.929ZM219.801 222.929H231.718V210.769H219.801V222.929ZM233.042 222.929H244.959V210.769H233.042V222.929ZM246.283 222.929H258.2V210.769H246.283V222.929ZM258.2 209.418V197.258H246.283V209.418H258.2ZM244.959 209.418V197.258H233.042V209.418H244.959ZM231.718 209.418V197.258H219.801V209.418H231.718ZM218.477 209.418V197.258H206.56V209.418H218.477ZM205.236 209.418V197.258H193.319V209.418H205.236ZM191.995 209.418V197.258H180.078V209.418H191.995ZM178.754 209.418V197.258H166.837V209.418H178.754ZM165.513 209.418V197.258H153.596V209.418H165.513ZM153.596 195.907H165.513V183.748H153.596V195.907ZM166.837 195.907H178.754V183.748H166.837V195.907ZM180.078 195.907H191.995V183.748H180.078V195.907ZM193.319 195.907H205.236V183.748H193.319V195.907ZM206.56 195.907H218.477V183.748H206.56V195.907ZM219.801 195.907H231.718V183.748H219.801V195.907ZM233.042 195.907H244.959V183.748H233.042V195.907ZM246.283 195.907H258.2V183.748H246.283V195.907ZM258.2 182.396V170.237H246.283V182.396H258.2ZM244.959 182.396V170.237H233.042V182.396H244.959ZM231.718 182.396V170.237H219.801V182.396H231.718ZM218.477 182.396V170.237H206.56V182.396H218.477ZM205.236 182.396V170.237H193.319V182.396H205.236ZM191.995 182.396V170.237H180.078V182.396H191.995ZM178.754 182.396V170.237H166.837V182.396H178.754ZM165.513 182.396V170.237H153.596V182.396H165.513ZM153.596 168.886H165.513V156.726H153.596V168.886ZM166.837 168.886H178.754V156.726H166.837V168.886ZM180.078 168.886H191.995V156.726H180.078V168.886ZM193.319 168.886H205.236V156.726H193.319V168.886ZM206.56 168.886H218.477V156.726H206.56V168.886ZM219.801 168.886H231.718V156.726H219.801V168.886ZM233.042 168.886H244.959V156.726H233.042V168.886ZM246.283 168.886H258.2V156.726H246.283V168.886Z" fill="#031F22"/>
<path fill-rule="evenodd" clip-rule="evenodd" d="M140.355 141.864V135.109H139.031V141.864H132.41V143.215H139.031V270.217H140.355V143.215H264.82V141.864H140.355Z" fill="#031F22"/>
<path opacity="0.5" fill-rule="evenodd" clip-rule="evenodd" d="M259.524 398.57H264.82V399.921H259.524V405.325H258.2V399.921H246.283V405.325H244.959V399.921H233.042V405.325H231.718V399.921H219.801V405.325H218.477V399.921H206.56V405.325H205.236V399.921H193.319V405.325H191.995V399.921H180.078V405.325H178.754V399.921H166.837V405.325H165.513V399.921H153.596V405.325H152.272V399.921H132.41V398.57H152.272V386.41H132.41V385.059H152.272V372.899H132.41V371.548H152.272V359.389H132.41V358.037H152.272V345.878H132.41V344.527H152.272V332.367H132.41V331.016H152.272V318.856H132.41V317.505H152.272V305.345H132.41V303.994H152.272V291.834H132.41V290.483H152.272V270.217H153.596V290.483H165.513V270.217H166.837V290.483H178.754V270.217H180.078V290.483H191.995V270.217H193.319V290.483H205.236V270.217H206.56V290.483H218.477V270.217H219.801V290.483H231.718V270.217H233.042V290.483H244.959V270.217H246.283V290.483H258.2V270.217H259.524V290.483H264.82V291.834H259.524V303.994H264.82V305.345H259.524V317.505H264.82V318.856H259.524V331.016H264.82V332.367H259.524V344.527H264.82V345.878H259.524V358.037H264.82V359.389H259.524V371.548H264.82V372.899H259.524V385.059H264.82V386.41H259.524V398.57ZM258.2 398.57V386.41H246.283V398.57H258.2ZM244.959 398.57V386.41H233.042V398.57H244.959ZM231.718 398.57V386.41H219.801V398.57H231.718ZM218.477 398.57V386.41H206.56V398.57H218.477ZM205.236 398.57V386.41H193.319V398.57H205.236ZM191.995 398.57V386.41H180.078V398.57H191.995ZM178.754 398.57V386.41H166.837V398.57H178.754ZM165.513 398.57V386.41H153.596V398.57H165.513ZM153.596 385.059H165.513V372.899H153.596V385.059ZM166.837 385.059H178.754V372.899H166.837V385.059ZM180.078 385.059H191.995V372.899H180.078V385.059ZM193.319 385.059H205.236V372.899H193.319V385.059ZM206.56 385.059H218.477V372.899H206.56V385.059ZM219.801 385.059H231.718V372.899H219.801V385.059ZM233.042 385.059H244.959V372.899H233.042V385.059ZM246.283 385.059H258.2V372.899H246.283V385.059ZM258.2 371.548V359.389H246.283V371.548H258.2ZM244.959 371.548V359.389H233.042V371.548H244.959ZM231.718 371.548V359.389H219.801V371.548H231.718ZM218.477 371.548V359.389H206.56V371.548H218.477ZM205.236 371.548V359.389H193.319V371.548H205.236ZM191.995 371.548V359.389H180.078V371.548H191.995ZM178.754 371.548V359.389H166.837V371.548H178.754ZM165.513 371.548V359.389H153.596V371.548H165.513ZM153.596 358.037H165.513V345.878H153.596V358.037ZM166.837 358.037H178.754V345.878H166.837V358.037ZM180.078 358.037H191.995V345.878H180.078V358.037ZM193.319 358.037H205.236V345.878H193.319V358.037ZM206.56 358.037H218.477V345.878H206.56V358.037ZM219.801 358.037H231.718V345.878H219.801V358.037ZM233.042 358.037H244.959V345.878H233.042V358.037ZM246.283 358.037H258.2V345.878H246.283V358.037ZM258.2 344.527V332.367H246.283V344.527H258.2ZM244.959 344.527V332.367H233.042V344.527H244.959ZM231.718 344.527V332.367H219.801V344.527H231.718ZM218.477 344.527V332.367H206.56V344.527H218.477ZM205.236 344.527V332.367H193.319V344.527H205.236ZM191.995 344.527V332.367H180.078V344.527H191.995ZM178.754 344.527V332.367H166.837V344.527H178.754ZM165.513 344.527V332.367H153.596V344.527H165.513ZM153.596 331.016H165.513V318.856H153.596V331.016ZM166.837 331.016H178.754V318.856H166.837V331.016ZM180.078 331.016H191.995V318.856H180.078V331.016ZM193.319 331.016H205.236V318.856H193.319V331.016ZM206.56 331.016H218.477V318.856H206.56V331.016ZM219.801 331.016H231.718V318.856H219.801V331.016ZM233.042 331.016H244.959V318.856H233.042V331.016ZM246.283 331.016H258.2V318.856H246.283V331.016ZM258.2 317.505V305.345H246.283V317.505H258.2ZM244.959 317.505V305.345H233.042V317.505H244.959ZM231.718 317.505V305.345H219.801V317.505H231.718ZM218.477 317.505V305.345H206.56V317.505H218.477ZM205.236 317.505V305.345H193.319V317.505H205.236ZM191.995 317.505V305.345H180.078V317.505H191.995ZM178.754 317.505V305.345H166.837V317.505H178.754ZM165.513 317.505V305.345H153.596V317.505H165.513ZM153.596 303.994H165.513V291.834H153.596V303.994ZM166.837 303.994H178.754V291.834H166.837V303.994ZM180.078 303.994H191.995V291.834H180.078V303.994ZM193.319 303.994H205.236V291.834H193.319V303.994ZM206.56 303.994H218.477V291.834H206.56V303.994ZM219.801 303.994H231.718V291.834H219.801V303.994ZM233.042 303.994H244.959V291.834H233.042V303.994ZM246.283 303.994H258.2V291.834H246.283V303.994Z" fill="#031F22"/>
<path fill-rule="evenodd" clip-rule="evenodd" d="M140.355 276.972V270.217H139.031V276.972H132.41V278.323H139.031V405.325H140.355V278.323H264.82V276.972H140.355Z" fill="#031F22"/>
<path opacity="0.5" fill-rule="evenodd" clip-rule="evenodd" d="M524.344 128.353H529.64V129.704H524.344V135.108H523.02V129.704H511.103V135.108H509.779V129.704H497.862V135.108H496.538V129.704H484.621V135.108H483.297V129.704H471.38V135.108H470.056V129.704H458.139V135.108H456.815V129.704H444.898V135.108H443.574V129.704H431.657V135.108H430.333V129.704H418.416V135.108H417.092V129.704H397.23V128.353H417.092V116.193H397.23V114.842H417.092V102.682H397.23V101.331H417.092V89.1716H397.23V87.8205H417.092V75.6608H397.23V74.3097H417.092V62.1499H397.23V60.7988H417.092V48.6391H397.23V47.288H417.092V35.1282H397.23V33.7771H417.092V21.6174H397.23V20.2663H417.092V0H418.416V20.2663H430.333V0H431.657V20.2663H443.574V0H444.898V20.2663H456.815V0H458.139V20.2663H470.056V0H471.38V20.2663H483.297V0H484.621V20.2663H496.538V0H497.862V20.2663H509.779V0H511.103V20.2663H523.02V0H524.344V20.2663H529.64V21.6174H524.344V33.7771H529.64V35.1282H524.344V47.288H529.64V48.6391H524.344V60.7988H529.64V62.1499H524.344V74.3097H529.64V75.6608H524.344V87.8205H529.64V89.1716H524.344V101.331H529.64V102.682H524.344V114.842H529.64V116.193H524.344V128.353ZM523.02 128.353V116.193H511.103V128.353H523.02ZM509.779 128.353V116.193H497.862V128.353H509.779ZM496.538 128.353V116.193H484.621V128.353H496.538ZM483.297 128.353V116.193H471.38V128.353H483.297ZM470.056 128.353V116.193H458.139V128.353H470.056ZM456.815 128.353V116.193H444.898V128.353H456.815ZM443.574 128.353V116.193H431.657V128.353H443.574ZM430.333 128.353V116.193H418.416V128.353H430.333ZM418.416 114.842H430.333V102.682H418.416V114.842ZM431.657 114.842H443.574V102.682H431.657V114.842ZM444.898 114.842H456.815V102.682H444.898V114.842ZM458.139 114.842H470.056V102.682H458.139V114.842ZM471.38 114.842H483.297V102.682H471.38V114.842ZM484.621 114.842H496.538V102.682H484.621V114.842ZM497.862 114.842H509.779V102.682H497.862V114.842ZM511.103 114.842H523.02V102.682H511.103V114.842ZM523.02 101.331V89.1716H511.103V101.331H523.02ZM509.779 101.331V89.1716H497.862V101.331H509.779ZM496.538 101.331V89.1716H484.621V101.331H496.538ZM483.297 101.331V89.1716H471.38V101.331H483.297ZM470.056 101.331V89.1716H458.139V101.331H470.056ZM456.815 101.331V89.1716H444.898V101.331H456.815ZM443.574 101.331V89.1716H431.657V101.331H443.574ZM430.333 101.331V89.1716H418.416V101.331H430.333ZM418.416 87.8205H430.333V75.6608H418.416V87.8205ZM431.657 87.8205H443.574V75.6608H431.657V87.8205ZM444.898 87.8205H456.815V75.6608H444.898V87.8205ZM458.139 87.8205H470.056V75.6608H458.139V87.8205ZM471.38 87.8205H483.297V75.6608H471.38V87.8205ZM484.621 87.8205H496.538V75.6608H484.621V87.8205ZM497.862 87.8205H509.779V75.6608H497.862V87.8205ZM511.103 87.8205H523.02V75.6608H511.103V87.8205ZM523.02 74.3097V62.1499H511.103V74.3097H523.02ZM509.779 74.3097V62.1499H497.862V74.3097H509.779ZM496.538 74.3097V62.1499H484.621V74.3097H496.538ZM483.297 74.3097V62.1499H471.38V74.3097H483.297ZM470.056 74.3097V62.1499H458.139V74.3097H470.056ZM456.815 74.3097V62.1499H444.898V74.3097H456.815ZM443.574 74.3097V62.1499H431.657V74.3097H443.574ZM430.333 74.3097V62.1499H418.416V74.3097H430.333ZM418.416 60.7988H430.333V48.6391H418.416V60.7988ZM431.657 60.7988H443.574V48.6391H431.657V60.7988ZM444.898 60.7988H456.815V48.6391H444.898V60.7988ZM458.139 60.7988H470.056V48.6391H458.139V60.7988ZM471.38 60.7988H483.297V48.6391H471.38V60.7988ZM484.621 60.7988H496.538V48.6391H484.621V60.7988ZM497.862 60.7988H509.779V48.6391H497.862V60.7988ZM511.103 60.7988H523.02V48.6391H511.103V60.7988ZM523.02 47.288V35.1282H511.103V47.288H523.02ZM509.779 47.288V35.1282H497.862V47.288H509.779ZM496.538 47.288V35.1282H484.621V47.288H496.538ZM483.297 47.288V35.1282H471.38V47.288H483.297ZM470.056 47.288V35.1282H458.139V47.288H470.056ZM456.815 47.288V35.1282H444.898V47.288H456.815ZM443.574 47.288V35.1282H431.657V47.288H443.574ZM430.333 47.288V35.1282H418.416V47.288H430.333ZM418.416 33.7771H430.333V21.6174H418.416V33.7771ZM431.657 33.7771H443.574V21.6174H431.657V33.7771ZM444.898 33.7771H456.815V21.6174H444.898V33.7771ZM458.139 33.7771H470.056V21.6174H458.139V33.7771ZM471.38 33.7771H483.297V21.6174H471.38V33.7771ZM484.621 33.7771H496.538V21.6174H484.621V33.7771ZM497.862 33.7771H509.779V21.6174H497.862V33.7771ZM511.103 33.7771H523.02V21.6174H511.103V33.7771Z" fill="#031F22"/>
<path fill-rule="evenodd" clip-rule="evenodd" d="M405.175 6.75542V0H403.851V6.75542H397.23V8.10651H403.851V135.108H405.175V8.10651H529.64V6.75542H405.175Z" fill="#031F22"/>
<path opacity="0.5" fill-rule="evenodd" clip-rule="evenodd" d="M524.344 263.462H529.64V264.813H524.344V270.217H523.02V264.813H511.103V270.217H509.779V264.813H497.862V270.217H496.538V264.813H484.621V270.217H483.297V264.813H471.38V270.217H470.056V264.813H458.139V270.217H456.815V264.813H444.898V270.217H443.574V264.813H431.657V270.217H430.333V264.813H418.416V270.217H417.092V264.813H397.23V263.462H417.092V251.302H397.23V249.951H417.092V237.791H397.23V236.44H417.092V224.28H397.23V222.929H417.092V210.769H397.23V209.418H417.092V197.258H397.23V195.907H417.092V183.748H397.23V182.396H417.092V170.237H397.23V168.886H417.092V156.726H397.23V155.375H417.092V135.109H418.416V155.375H430.333V135.109H431.657V155.375H443.574V135.109H444.898V155.375H456.815V135.109H458.139V155.375H470.056V135.109H471.38V155.375H483.297V135.109H484.621V155.375H496.538V135.109H497.862V155.375H509.779V135.109H511.103V155.375H523.02V135.109H524.344V155.375H529.64V156.726H524.344V168.886H529.64V170.237H524.344V182.396H529.64V183.748H524.344V195.907H529.64V197.258H524.344V209.418H529.64V210.769H524.344V222.929H529.64V224.28H524.344V236.44H529.64V237.791H524.344V249.951H529.64V251.302H524.344V263.462ZM523.02 263.462V251.302H511.103V263.462H523.02ZM509.779 263.462V251.302H497.862V263.462H509.779ZM496.538 263.462V251.302H484.621V263.462H496.538ZM483.297 263.462V251.302H471.38V263.462H483.297ZM470.056 263.462V251.302H458.139V263.462H470.056ZM456.815 263.462V251.302H444.898V263.462H456.815ZM443.574 263.462V251.302H431.657V263.462H443.574ZM430.333 263.462V251.302H418.416V263.462H430.333ZM418.416 249.951H430.333V237.791H418.416V249.951ZM431.657 249.951H443.574V237.791H431.657V249.951ZM444.898 249.951H456.815V237.791H444.898V249.951ZM458.139 249.951H470.056V237.791H458.139V249.951ZM471.38 249.951H483.297V237.791H471.38V249.951ZM484.621 249.951H496.538V237.791H484.621V249.951ZM497.862 249.951H509.779V237.791H497.862V249.951ZM511.103 249.951H523.02V237.791H511.103V249.951ZM523.02 236.44V224.28H511.103V236.44H523.02ZM509.779 236.44V224.28H497.862V236.44H509.779ZM496.538 236.44V224.28H484.621V236.44H496.538ZM483.297 236.44V224.28H471.38V236.44H483.297ZM470.056 236.44V224.28H458.139V236.44H470.056ZM456.815 236.44V224.28H444.898V236.44H456.815ZM443.574 236.44V224.28H431.657V236.44H443.574ZM430.333 236.44V224.28H418.416V236.44H430.333ZM418.416 222.929H430.333V210.769H418.416V222.929ZM431.657 222.929H443.574V210.769H431.657V222.929ZM444.898 222.929H456.815V210.769H444.898V222.929ZM458.139 222.929H470.056V210.769H458.139V222.929ZM471.38 222.929H483.297V210.769H471.38V222.929ZM484.621 222.929H496.538V210.769H484.621V222.929ZM497.862 222.929H509.779V210.769H497.862V222.929ZM511.103 222.929H523.02V210.769H511.103V222.929ZM523.02 209.418V197.258H511.103V209.418H523.02ZM509.779 209.418V197.258H497.862V209.418H509.779ZM496.538 209.418V197.258H484.621V209.418H496.538ZM483.297 209.418V197.258H471.38V209.418H483.297ZM470.056 209.418V197.258H458.139V209.418H470.056ZM456.815 209.418V197.258H444.898V209.418H456.815ZM443.574 209.418V197.258H431.657V209.418H443.574ZM430.333 209.418V197.258H418.416V209.418H430.333ZM418.416 195.907H430.333V183.748H418.416V195.907ZM431.657 195.907H443.574V183.748H431.657V195.907ZM444.898 195.907H456.815V183.748H444.898V195.907ZM458.139 195.907H470.056V183.748H458.139V195.907ZM471.38 195.907H483.297V183.748H471.38V195.907ZM484.621 195.907H496.538V183.748H484.621V195.907ZM497.862 195.907H509.779V183.748H497.862V195.907ZM511.103 195.907H523.02V183.748H511.103V195.907ZM523.02 182.396V170.237H511.103V182.396H523.02ZM509.779 182.396V170.237H497.862V182.396H509.779ZM496.538 182.396V170.237H484.621V182.396H496.538ZM483.297 182.396V170.237H471.38V182.396H483.297ZM470.056 182.396V170.237H458.139V182.396H470.056ZM456.815 182.396V170.237H444.898V182.396H456.815ZM443.574 182.396V170.237H431.657V182.396H443.574ZM430.333 182.396V170.237H418.416V182.396H430.333ZM418.416 168.886H430.333V156.726H418.416V168.886ZM431.657 168.886H443.574V156.726H431.657V168.886ZM444.898 168.886H456.815V156.726H444.898V168.886ZM458.139 168.886H470.056V156.726H458.139V168.886ZM471.38 168.886H483.297V156.726H471.38V168.886ZM484.621 168.886H496.538V156.726H484.621V168.886ZM497.862 168.886H509.779V156.726H497.862V168.886ZM511.103 168.886H523.02V156.726H511.103V168.886Z" fill="#031F22"/>
<path fill-rule="evenodd" clip-rule="evenodd" d="M405.175 141.864V135.109H403.851V141.864H397.23V143.215H403.851V270.217H405.175V143.215H529.64V141.864H405.175Z" fill="#031F22"/>
<path opacity="0.5" fill-rule="evenodd" clip-rule="evenodd" d="M524.344 398.57H529.64V399.921H524.344V405.325H523.02V399.921H511.103V405.325H509.779V399.921H497.862V405.325H496.538V399.921H484.621V405.325H483.297V399.921H471.38V405.325H470.056V399.921H458.139V405.325H456.815V399.921H444.898V405.325H443.574V399.921H431.657V405.325H430.333V399.921H418.416V405.325H417.092V399.921H397.23V398.57H417.092V386.41H397.23V385.059H417.092V372.899H397.23V371.548H417.092V359.389H397.23V358.037H417.092V345.878H397.23V344.527H417.092V332.367H397.23V331.016H417.092V318.856H397.23V317.505H417.092V305.345H397.23V303.994H417.092V291.834H397.23V290.483H417.092V270.217H418.416V290.483H430.333V270.217H431.657V290.483H443.574V270.217H444.898V290.483H456.815V270.217H458.139V290.483H470.056V270.217H471.38V290.483H483.297V270.217H484.621V290.483H496.538V270.217H497.862V290.483H509.779V270.217H511.103V290.483H523.02V270.217H524.344V290.483H529.64V291.834H524.344V303.994H529.64V305.345H524.344V317.505H529.64V318.856H524.344V331.016H529.64V332.367H524.344V344.527H529.64V345.878H524.344V358.037H529.64V359.389H524.344V371.548H529.64V372.899H524.344V385.059H529.64V386.41H524.344V398.57ZM523.02 398.57V386.41H511.103V398.57H523.02ZM509.779 398.57V386.41H497.862V398.57H509.779ZM496.538 398.57V386.41H484.621V398.57H496.538ZM483.297 398.57V386.41H471.38V398.57H483.297ZM470.056 398.57V386.41H458.139V398.57H470.056ZM456.815 398.57V386.41H444.898V398.57H456.815ZM443.574 398.57V386.41H431.657V398.57H443.574ZM430.333 398.57V386.41H418.416V398.57H430.333ZM418.416 385.059H430.333V372.899H418.416V385.059ZM431.657 385.059H443.574V372.899H431.657V385.059ZM444.898 385.059H456.815V372.899H444.898V385.059ZM458.139 385.059H470.056V372.899H458.139V385.059ZM471.38 385.059H483.297V372.899H471.38V385.059ZM484.621 385.059H496.538V372.899H484.621V385.059ZM497.862 385.059H509.779V372.899H497.862V385.059ZM511.103 385.059H523.02V372.899H511.103V385.059ZM523.02 371.548V359.389H511.103V371.548H523.02ZM509.779 371.548V359.389H497.862V371.548H509.779ZM496.538 371.548V359.389H484.621V371.548H496.538ZM483.297 371.548V359.389H471.38V371.548H483.297ZM470.056 371.548V359.389H458.139V371.548H470.056ZM456.815 371.548V359.389H444.898V371.548H456.815ZM443.574 371.548V359.389H431.657V371.548H443.574ZM430.333 371.548V359.389H418.416V371.548H430.333ZM418.416 358.037H430.333V345.878H418.416V358.037ZM431.657 358.037H443.574V345.878H431.657V358.037ZM444.898 358.037H456.815V345.878H444.898V358.037ZM458.139 358.037H470.056V345.878H458.139V358.037ZM471.38 358.037H483.297V345.878H471.38V358.037ZM484.621 358.037H496.538V345.878H484.621V358.037ZM497.862 358.037H509.779V345.878H497.862V358.037ZM511.103 358.037H523.02V345.878H511.103V358.037ZM523.02 344.527V332.367H511.103V344.527H523.02ZM509.779 344.527V332.367H497.862V344.527H509.779ZM496.538 344.527V332.367H484.621V344.527H496.538ZM483.297 344.527V332.367H471.38V344.527H483.297ZM470.056 344.527V332.367H458.139V344.527H470.056ZM456.815 344.527V332.367H444.898V344.527H456.815ZM443.574 344.527V332.367H431.657V344.527H443.574ZM430.333 344.527V332.367H418.416V344.527H430.333ZM418.416 331.016H430.333V318.856H418.416V331.016ZM431.657 331.016H443.574V318.856H431.657V331.016ZM444.898 331.016H456.815V318.856H444.898V331.016ZM458.139 331.016H470.056V318.856H458.139V331.016ZM471.38 331.016H483.297V318.856H471.38V331.016ZM484.621 331.016H496.538V318.856H484.621V331.016ZM497.862 331.016H509.779V318.856H497.862V331.016ZM511.103 331.016H523.02V318.856H511.103V331.016ZM523.02 317.505V305.345H511.103V317.505H523.02ZM509.779 317.505V305.345H497.862V317.505H509.779ZM496.538 317.505V305.345H484.621V317.505H496.538ZM483.297 317.505V305.345H471.38V317.505H483.297ZM470.056 317.505V305.345H458.139V317.505H470.056ZM456.815 317.505V305.345H444.898V317.505H456.815ZM443.574 317.505V305.345H431.657V317.505H443.574ZM430.333 317.505V305.345H418.416V317.505H430.333ZM418.416 303.994H430.333V291.834H418.416V303.994ZM431.657 303.994H443.574V291.834H431.657V303.994ZM444.898 303.994H456.815V291.834H444.898V303.994ZM458.139 303.994H470.056V291.834H458.139V303.994ZM471.38 303.994H483.297V291.834H471.38V303.994ZM484.621 303.994H496.538V291.834H484.621V303.994ZM497.862 303.994H509.779V291.834H497.862V303.994ZM511.103 303.994H523.02V291.834H511.103V303.994Z" fill="#031F22"/>
<path fill-rule="evenodd" clip-rule="evenodd" d="M405.175 276.972V270.217H403.851V276.972H397.23V278.323H403.851V405.325H405.175V278.323H529.64V276.972H405.175Z" fill="#031F22"/>
</svg>
